<svg width="24" height="25" viewBox="0 0 24 25" fill="none" xmlns="http://www.w3.org/2000/svg">
<path d="M11.0005 15.5002C11.0005 15.1496 11.0607 14.813 11.1712 14.5002H4.25278C3.01076 14.5002 2.00391 15.507 2.00391 16.7491V17.3267C2.00391 18.2195 2.32242 19.083 2.90219 19.7619C4.46849 21.5962 6.8545 22.5013 10.0004 22.5013C10.3979 22.5013 10.7834 22.4869 11.1566 22.4579C11.0554 22.1572 11.0005 21.8351 11.0005 21.5002V20.9657C10.6793 20.9894 10.346 21.0013 10.0004 21.0013C7.26206 21.0013 5.29618 20.2555 4.04287 18.7878C3.69502 18.3805 3.50391 17.8624 3.50391 17.3267V16.7491C3.50391 16.3355 3.83919 16.0002 4.25278 16.0002H11.0005V15.5002ZM10.0004 2.50488C12.7618 2.50488 15.0004 4.74346 15.0004 7.50488C15.0004 10.2663 12.7618 12.5049 10.0004 12.5049C7.23894 12.5049 5.00036 10.2663 5.00036 7.50488C5.00036 4.74346 7.23894 2.50488 10.0004 2.50488ZM10.0004 4.00488C8.06737 4.00488 6.50036 5.57189 6.50036 7.50488C6.50036 9.43788 8.06737 11.0049 10.0004 11.0049C11.9334 11.0049 13.5004 9.43788 13.5004 7.50488C13.5004 5.57189 11.9334 4.00488 10.0004 4.00488ZM12.0005 15.5002C12.0005 14.3957 12.8959 13.5002 14.0005 13.5002H21.0005C22.1051 13.5002 23.0005 14.3957 23.0005 15.5002V21.5002C23.0005 22.6048 22.1051 23.5002 21.0005 23.5002H14.0005C12.8959 23.5002 12.0005 22.6048 12.0005 21.5002V15.5002ZM14.5005 16.5002C14.2243 16.5002 14.0005 16.7241 14.0005 17.0002C14.0005 17.2764 14.2243 17.5002 14.5005 17.5002H20.5005C20.7766 17.5002 21.0005 17.2764 21.0005 17.0002C21.0005 16.7241 20.7766 16.5002 20.5005 16.5002H14.5005ZM14.5005 19.5002C14.2243 19.5002 14.0005 19.7241 14.0005 20.0002C14.0005 20.2764 14.2243 20.5002 14.5005 20.5002H20.5005C20.7766 20.5002 21.0005 20.2764 21.0005 20.0002C21.0005 19.7241 20.7766 19.5002 20.5005 19.5002H14.5005Z" fill="#008433"/>
</svg>
