<svg width="25" height="25" viewBox="0 0 25 25" fill="none" xmlns="http://www.w3.org/2000/svg">
<path d="M11.25 8.5C9.59315 8.5 8.25 9.84315 8.25 11.5C8.25 13.1569 9.59315 14.5 11.25 14.5C12.9069 14.5 14.25 13.1569 14.25 11.5C14.25 9.84315 12.9069 8.5 11.25 8.5ZM9.75 11.5C9.75 10.6716 10.4216 10 11.25 10C12.0784 10 12.75 10.6716 12.75 11.5C12.75 12.3284 12.0784 13 11.25 13C10.4216 13 9.75 12.3284 9.75 11.5ZM2.75 7.75C2.75 6.50736 3.75736 5.5 5 5.5H17.5C18.7426 5.5 19.75 6.50736 19.75 7.75V15.25C19.75 16.4926 18.7426 17.5 17.5 17.5H5C3.75736 17.5 2.75 16.4926 2.75 15.25V7.75ZM5 7C4.58579 7 4.25 7.33579 4.25 7.75V8.5H5C5.41421 8.5 5.75 8.16421 5.75 7.75V7H5ZM4.25 13H5C6.24264 13 7.25 14.0074 7.25 15.25V16H15.25V15.25C15.25 14.0074 16.2574 13 17.5 13H18.25V10H17.5C16.2574 10 15.25 8.99264 15.25 7.75V7H7.25V7.75C7.25 8.99264 6.24264 10 5 10H4.25V13ZM18.25 8.5V7.75C18.25 7.33579 17.9142 7 17.5 7H16.75V7.75C16.75 8.16421 17.0858 8.5 17.5 8.5H18.25ZM18.25 14.5H17.5C17.0858 14.5 16.75 14.8358 16.75 15.25V16H17.5C17.9142 16 18.25 15.6642 18.25 15.25V14.5ZM4.25 15.25C4.25 15.6642 4.58579 16 5 16H5.75V15.25C5.75 14.8358 5.41421 14.5 5 14.5H4.25V15.25ZM5.15137 19C5.67008 19.8967 6.6396 20.5 7.75002 20.5H18C20.6234 20.5 22.75 18.3734 22.75 15.75V10.5C22.75 9.3896 22.1467 8.42008 21.25 7.90137V15.75C21.25 17.5449 19.7949 19 18 19H5.15137Z" fill="#008433"/>
</svg>
