<svg width="25" height="25" viewBox="0 0 25 25" fill="none" xmlns="http://www.w3.org/2000/svg">
<path d="M4.25 5.75C4.25 4.50736 5.25736 3.5 6.5 3.5H16C17.2426 3.5 18.25 4.50736 18.25 5.75V14.5H22.25V18.25C22.25 20.0449 20.7949 21.5 19 21.5H12.2282C12.5247 21.0368 12.7642 20.5335 12.9365 20H16.75V5.75C16.75 5.33579 16.4142 5 16 5H6.5C6.08579 5 5.75 5.33579 5.75 5.75V11.5764C5.22679 11.6572 4.72417 11.8004 4.25 11.9982V5.75ZM14 13H10.9036C10.1002 12.3318 9.13313 11.8537 8.07145 11.6344C8.19293 11.5497 8.34066 11.5 8.5 11.5H14C14.4142 11.5 14.75 11.8358 14.75 12.25C14.75 12.6642 14.4142 13 14 13ZM18.25 20H19C19.9665 20 20.75 19.2165 20.75 18.25V16H18.25V20ZM8.5 7.5C8.08579 7.5 7.75 7.83579 7.75 8.25C7.75 8.66421 8.08579 9 8.5 9H14C14.4142 9 14.75 8.66421 14.75 8.25C14.75 7.83579 14.4142 7.5 14 7.5H8.5ZM12.25 18C12.25 14.9624 9.78757 12.5 6.75 12.5C3.71243 12.5 1.25 14.9624 1.25 18C1.25 21.0376 3.71243 23.5 6.75 23.5C9.78757 23.5 12.25 21.0376 12.25 18ZM7.25065 18.5L7.25111 21.0035C7.25111 21.2797 7.02725 21.5035 6.75111 21.5035C6.47497 21.5035 6.25111 21.2797 6.25111 21.0035L6.25065 18.5H3.7456C3.46973 18.5 3.24609 18.2762 3.24609 18C3.24609 17.7239 3.46973 17.5 3.7456 17.5H6.25046L6.25 14.9993C6.25 14.7231 6.47386 14.4993 6.75 14.4993C7.02614 14.4993 7.25 14.7231 7.25 14.9993L7.25046 17.5H9.74659C10.0225 17.5 10.2461 17.7239 10.2461 18C10.2461 18.2762 10.0225 18.5 9.74659 18.5H7.25065Z" fill="#008433"/>
</svg>
