<svg width="25" height="25" viewBox="0 0 25 25" fill="none" xmlns="http://www.w3.org/2000/svg">
<path d="M3.5 5.75C3.5 4.50736 4.50736 3.5 5.75 3.5H15.25C16.4926 3.5 17.5 4.50736 17.5 5.75V14.5H21.5V18.25C21.5 20.0449 20.0449 21.5 18.25 21.5H6.75C4.95507 21.5 3.5 20.0449 3.5 18.25V5.75ZM17.5 20H18.25C19.2165 20 20 19.2165 20 18.25V16H17.5V20ZM5.75 5C5.33579 5 5 5.33579 5 5.75V18.25C5 19.2165 5.7835 20 6.75 20H16V5.75C16 5.33579 15.6642 5 15.25 5H5.75ZM7.75 7.5C7.33579 7.5 7 7.83579 7 8.25C7 8.66421 7.33579 9 7.75 9H13.25C13.6642 9 14 8.66421 14 8.25C14 7.83579 13.6642 7.5 13.25 7.5H7.75ZM7 12.25C7 11.8358 7.33579 11.5 7.75 11.5H13.25C13.6642 11.5 14 11.8358 14 12.25C14 12.6642 13.6642 13 13.25 13H7.75C7.33579 13 7 12.6642 7 12.25ZM7.75 15.5C7.33579 15.5 7 15.8358 7 16.25C7 16.6642 7.33579 17 7.75 17H10.75C11.1642 17 11.5 16.6642 11.5 16.25C11.5 15.8358 11.1642 15.5 10.75 15.5H7.75Z" fill="#008433"/>
</svg>
