<svg width="40" height="40" viewBox="0 0 40 40" fill="none" xmlns="http://www.w3.org/2000/svg">
<path d="M20.31 24.2539C19.2816 24.2539 18.6816 25.2322 18.6816 26.5422C18.6816 27.8606 19.3 28.7922 20.32 28.7922C21.3483 28.7922 21.9383 27.8122 21.9383 26.5022C21.9383 25.2922 21.3583 24.2539 20.31 24.2539Z" fill="#69CAFF"/>
<path d="M23.3332 3.33398H9.99984C9.11578 3.33398 8.26794 3.68517 7.64281 4.31029C7.01769 4.93542 6.6665 5.78326 6.6665 6.66732V33.334C6.6665 34.218 7.01769 35.0659 7.64281 35.691C8.26794 36.3161 9.11578 36.6673 9.99984 36.6673H29.9998C30.8839 36.6673 31.7317 36.3161 32.3569 35.691C32.982 35.0659 33.3332 34.218 33.3332 33.334V13.334L23.3332 3.33398ZM15.2582 29.0907C14.5482 29.6807 13.4698 29.959 12.1515 29.959C11.3598 29.959 10.8015 29.909 10.4215 29.859V23.2407C11.103 23.1415 11.7912 23.0952 12.4798 23.1023C13.7598 23.1023 14.5898 23.3323 15.2382 23.8223C15.9382 24.3423 16.3782 25.1723 16.3782 26.359C16.3782 27.6507 15.9082 28.5407 15.2582 29.0907ZM20.2415 30.0007C18.2415 30.0007 17.0732 28.4907 17.0732 26.5707C17.0732 24.5523 18.3615 23.044 20.3515 23.044C22.4198 23.044 23.5498 24.5923 23.5498 26.4523C23.5482 28.6607 22.2082 30.0007 20.2415 30.0007ZM27.9998 28.7307C28.4582 28.7307 28.9682 28.629 29.2698 28.5107L29.4998 29.699C29.2198 29.839 28.5898 29.989 27.7715 29.989C25.4432 29.989 24.2432 28.5407 24.2432 26.6207C24.2432 24.3223 25.8815 23.044 27.9215 23.044C28.7115 23.044 29.3098 23.204 29.5798 23.344L29.2698 24.554C28.8638 24.3872 28.4288 24.3022 27.9898 24.304C26.7798 24.304 25.8398 25.034 25.8398 26.534C25.8398 27.8823 26.6398 28.7307 27.9998 28.7307ZM23.3332 15.0007H21.6665V6.66732L29.9998 15.0007H23.3332Z" fill="#69CAFF"/>
<path d="M12.64 24.2715C12.3017 24.2715 12.0817 24.3015 11.9517 24.3315V28.7398C12.0817 28.7698 12.2917 28.7698 12.48 28.7698C13.86 28.7798 14.7583 28.0215 14.7583 26.4115C14.7683 25.0115 13.95 24.2715 12.64 24.2715Z" fill="#69CAFF"/>
</svg>
