<svg width="40" height="40" viewBox="0 0 40 40" fill="none" xmlns="http://www.w3.org/2000/svg">
<path d="M21.6665 15.0007H30.8332L21.6665 5.83398V15.0007ZM9.99984 3.33398H23.3332L33.3332 13.334V33.334C33.3332 34.218 32.982 35.0659 32.3569 35.691C31.7317 36.3161 30.8839 36.6673 29.9998 36.6673H9.99984C9.11578 36.6673 8.26794 36.3161 7.64281 35.691C7.01769 35.0659 6.6665 34.218 6.6665 33.334V6.66732C6.6665 5.78326 7.01769 4.93542 7.64281 4.31029C8.26794 3.68517 9.11578 3.33398 9.99984 3.33398ZM18.2165 20.734C18.8998 22.234 19.7665 23.4673 20.7665 24.3173L21.4498 24.8507C19.9998 25.1173 17.9998 25.584 15.8832 26.4007L15.6998 26.4673L16.5332 24.734C17.2832 23.284 17.8332 21.9673 18.2165 20.734ZM29.0165 27.084C29.3165 26.784 29.4665 26.4007 29.4832 25.984C29.5332 25.6507 29.4498 25.334 29.2832 25.0673C28.7998 24.284 27.5498 23.9173 25.4832 23.9173L23.3332 24.034L21.8832 23.0673C20.8332 22.2007 19.8832 20.684 19.2165 18.8007L19.2832 18.5673C19.8332 16.3507 20.3498 13.6673 19.2498 12.5673C19.1153 12.4367 18.9561 12.334 18.7816 12.2654C18.6071 12.1967 18.4207 12.1634 18.2332 12.1673H17.8332C17.2165 12.1673 16.6665 12.8173 16.5165 13.4507C15.8998 15.6673 16.2665 16.884 16.8832 18.9007V18.9173C16.4665 20.384 15.9332 22.084 15.0832 23.8006L13.4832 26.8006L11.9998 27.6173C9.99984 28.8673 9.04984 30.2673 8.8665 31.1507C8.79984 31.4673 8.83317 31.7507 8.94984 32.0506L8.99984 32.134L9.79984 32.6507L10.5332 32.834C11.8832 32.834 13.4165 31.2506 15.4832 27.7173L15.7832 27.6006C17.4998 27.0506 19.6332 26.6673 22.4998 26.3507C24.2165 27.2007 26.2332 27.584 27.4998 27.584C28.2332 27.584 28.7332 27.4007 29.0165 27.084ZM28.3332 25.9007L28.4832 26.084C28.4665 26.2507 28.4165 26.2673 28.3332 26.3006H28.2665L27.9498 26.334C27.1832 26.334 25.9998 26.0173 24.7832 25.484C24.9332 25.3173 24.9998 25.3173 25.1665 25.3173C27.4998 25.3173 28.1665 25.734 28.3332 25.9007ZM13.0498 28.334C11.9665 30.3173 10.9832 31.4173 10.2332 31.6673C10.3165 31.034 11.0665 29.934 12.2498 28.8506L13.0498 28.334ZM18.0832 16.8173C17.6998 15.3173 17.6832 14.1007 17.9665 13.4007L18.0832 13.2007L18.3332 13.284C18.6165 13.684 18.6498 14.2173 18.4832 15.1173L18.4332 15.384L18.1665 16.7507L18.0832 16.8173Z" fill="#EF5350"/>
</svg>
