<svg width="40" height="31" viewBox="0 0 40 31" fill="none" xmlns="http://www.w3.org/2000/svg">
<g clip-path="url(#clip0_3323_67267)">
<path d="M39.5348 14.1795C38.9268 13.1992 37.8526 12.6133 36.6612 12.6133H10.1328C8.81781 12.6133 7.62187 13.3546 7.08508 14.5023L0.0683594 29.214C0.333203 30.2913 1.33945 31.096 2.53789 31.096H30.7621C31.3537 31.096 31.9336 30.931 32.4368 30.6198C32.9399 30.3086 33.3464 29.8633 33.6105 29.3339L39.6754 17.1781C40.1542 16.2163 40.1012 15.0953 39.5348 14.1795Z" fill="#D92D20"/>
<path d="M5.65641 12.2388C6.19266 11.0913 7.38891 10.3497 8.70422 10.3497H33.685V7.15461C33.685 5.83742 32.5738 4.7657 31.2082 4.7657H16.6422C16.6208 4.7657 16.6062 4.76023 16.6006 4.75625L13.9936 1.11094C13.5317 0.464063 12.7691 0.078125 11.9543 0.078125H2.47734C1.11117 0.078125 0 1.14992 0 2.46703V24.0979L5.65641 12.2388Z" fill="#D92D20"/>
</g>
<defs>
<clipPath id="clip0_3323_67267">
<rect width="40" height="31" fill="white"/>
</clipPath>
</defs>
</svg>
